<svg version="1.1" id="Layer_1" xmlns="http://www.w3.org/2000/svg" xmlns:xlink="http://www.w3.org/1999/xlink" x="0px" y="0px"
	 width="100%" viewBox="0 0 800 486" enable-background="new 0 0 800 486" xml:space="preserve">
<path fill="#55ABDF" opacity="1.000000" stroke="none" 
	d="
M801.000000,235.000000 
	C801.000000,243.022644 801.000000,251.045288 800.663452,259.731201 
	C799.930786,262.148132 799.572327,263.911316 799.132385,265.653931 
	C795.680664,279.328094 788.000000,290.473145 778.194885,300.286804 
	C731.594055,346.927979 684.962036,393.537872 638.339722,440.157501 
	C636.380188,442.116882 634.450806,444.109100 632.432434,446.006378 
	C622.174377,455.649139 612.176636,465.596161 601.522766,474.781311 
	C593.730713,481.499207 583.723999,484.145477 574.000000,487.000000 
	C401.977356,487.000000 229.954727,487.000000 57.273766,486.665710 
	C34.338734,481.841675 17.938923,469.461243 7.765870,449.205170 
	C4.877810,443.454590 3.221303,437.085449 1.000002,431.000000 
	C1.000000,306.644043 1.000000,182.288055 1.334275,57.273766 
	C6.875838,32.346027 20.613644,15.079391 43.760307,5.684257 
	C48.379608,3.809301 53.247002,2.545572 58.000000,1.000000 
	C227.022629,1.000000 396.045258,1.000000 565.734863,1.338641 
	C579.763000,3.800229 591.629150,9.237259 601.203552,18.785753 
	C661.438538,78.858040 721.610596,138.993851 781.599060,199.311890 
	C786.616577,204.356918 790.729492,210.571091 794.159424,216.845215 
	C797.231140,222.464111 798.779541,228.915756 801.000000,235.000000 
M730.303833,211.291809 
	C726.194580,214.144424 722.085327,216.997055 718.000916,219.832413 
	C727.948914,236.202194 728.972839,255.466766 718.654175,273.479614 
	C722.457275,276.286530 726.249023,279.085114 730.241882,282.492615 
	C732.590698,285.135925 733.809631,282.756989 734.752502,281.228180 
	C748.572449,258.820129 747.945374,238.675629 735.761414,213.947891 
	C735.073242,212.551361 732.597412,212.035690 730.303833,211.291809 
M681.966797,160.319351 
	C681.941650,159.895447 681.916504,159.471527 682.230286,158.570160 
	C681.836487,157.567917 681.706421,156.304001 681.009949,155.602081 
	C667.290466,141.775543 653.527832,127.991425 639.677063,114.296661 
	C638.851685,113.480591 637.213562,113.486588 635.316772,113.279984 
	C631.575317,116.975662 627.833923,120.671349 623.676880,124.777573 
	C625.901306,126.776596 627.843262,128.360703 629.601562,130.127518 
	C643.101379,143.692902 656.565552,157.293793 670.247742,171.495453 
	C671.369751,171.708038 672.984375,172.501587 673.532227,172.037064 
	C676.632019,169.408844 679.537476,166.537079 682.333252,163.581894 
	C682.701050,163.193115 682.062927,161.852631 681.966797,160.319351 
M400.521057,279.925568 
	C407.848145,266.554535 411.975098,252.629837 410.117615,237.034805 
	C407.679871,216.568054 398.528778,199.902924 381.958832,188.172211 
	C357.472778,170.837265 331.435669,169.771545 305.486115,184.982208 
	C285.397308,196.757523 274.534149,215.086655 272.129303,238.063904 
	C270.711639,251.608994 273.535858,264.613983 280.266846,276.660217 
	C295.016663,303.057556 320.617065,316.499084 350.498169,312.717529 
	C371.725861,310.031128 388.561951,298.974670 400.521057,279.925568 
M137.874176,270.677704 
	C142.335724,277.704315 145.771317,285.728180 151.450684,291.571045 
	C168.661606,309.277435 189.912445,316.504211 214.506210,311.988525 
	C235.658554,308.104736 251.223602,296.238708 262.116211,277.669556 
	C254.960281,273.744598 248.118271,269.991821 241.311172,266.258209 
	C227.298645,287.631012 207.481796,292.665955 189.065903,287.326172 
	C167.122589,280.963593 156.579620,264.830109 156.359177,244.254623 
	C156.158279,225.505692 164.855927,209.457809 186.346695,201.543839 
	C203.816788,195.110458 225.027557,198.454971 241.163925,221.085678 
	C246.518570,218.376862 251.834808,215.466904 257.340912,212.976837 
	C261.243652,211.211899 261.575897,209.189102 259.296631,205.759796 
	C251.474854,193.991425 240.860092,185.604645 228.037643,180.070343 
	C210.675690,172.576752 192.699768,172.802948 175.554550,179.623032 
	C165.030472,183.809326 155.495514,190.579269 148.213730,200.120911 
	C131.829330,221.590088 127.565681,244.632385 137.874176,270.677704 
M533.996948,265.539642 
	C528.338501,280.512421 522.679993,295.485199 516.978394,310.572144 
	C526.307556,311.649841 526.165161,311.597748 528.978455,303.909180 
	C532.395508,294.570618 536.083679,285.331238 539.671631,276.004608 
	C561.305115,276.004608 582.622192,275.918121 603.934875,276.182892 
	C605.495300,276.202240 607.728516,278.468079 608.447510,280.190857 
	C611.793884,288.209686 614.809753,296.371552 617.764404,304.547119 
	C620.422729,311.902802 621.064880,312.322906 629.012634,310.108124 
	C628.796814,309.345306 628.640137,308.559540 628.356262,307.822815 
	C621.926758,291.137024 615.428650,274.477417 609.055237,257.770294 
	C598.999512,231.410721 589.076721,205.000076 578.868225,178.700119 
	C578.352051,177.370224 575.725037,176.310867 573.981567,176.140335 
	C571.620850,175.909409 568.598999,174.823807 567.244324,178.415085 
	C561.513306,193.607376 555.743286,208.785172 549.924561,223.944077 
	C544.695923,237.565765 539.385132,251.155869 533.996948,265.539642 
M445.000000,286.500000 
	C445.000000,276.758698 445.000000,267.017365 445.000000,256.999939 
	C458.130585,256.999939 470.435242,257.035919 482.739288,256.962769 
	C484.674866,256.951263 486.635834,256.572327 488.537079,256.148254 
	C505.372559,252.393372 520.372498,234.538040 519.229675,214.727386 
	C518.290710,198.450974 506.042938,181.556747 489.751190,178.271729 
	C479.023834,176.108673 467.754913,176.510254 456.716461,176.054810 
	C449.632538,175.762527 442.526794,176.000000 435.388794,176.000000 
	C435.388794,221.348068 435.388794,266.014313 435.388794,310.677673 
	C438.699768,310.677673 441.617676,310.677673 445.000000,310.677673 
	C445.000000,302.742645 445.000000,295.121338 445.000000,286.500000 
M673.499939,343.000183 
	C676.676453,339.918671 679.853027,336.837158 682.442444,334.325256 
	C678.344543,330.133850 674.691772,326.397705 671.309082,322.937805 
	C656.087219,338.110596 640.678894,353.469330 624.674866,369.421783 
	C626.806274,371.793060 629.208008,374.211578 631.310669,376.866882 
	C634.098511,380.387421 636.242737,380.554871 639.589050,377.072235 
	C650.526184,365.689514 661.834412,354.663330 673.499939,343.000183 
M584.995850,65.484634 
	C584.774292,64.267662 584.958130,62.694687 584.258240,61.897663 
	C581.741455,59.031303 578.919434,56.433712 576.225037,53.722309 
	C565.818054,43.249634 553.843384,35.466473 539.138977,32.626545 
	C534.281311,31.688370 529.303528,31.372246 524.306763,30.762684 
	C524.306763,36.799747 524.306763,41.726341 524.306763,47.454613 
	C546.966431,46.160992 561.215576,60.201904 575.060486,75.941254 
	C578.590759,72.222664 581.548706,69.106956 584.995850,65.484634 
M131.505707,441.000000 
	C126.757965,441.000000 122.010216,441.000000 117.342926,441.000000 
	C117.342926,446.747894 117.342926,451.657196 117.342926,456.584534 
	C139.695770,456.584534 161.703125,456.584534 183.657089,456.584534 
	C183.657089,451.253693 183.657089,446.343689 183.657089,441.000000 
	C166.379776,441.000000 149.441986,441.000000 131.505707,441.000000 
M52.000000,229.500504 
	C52.000000,245.227814 52.000000,260.955139 52.000000,276.674927 
	C57.710552,276.674927 62.620136,276.674927 67.602509,276.674927 
	C67.602509,254.340622 67.602509,232.333649 67.602509,210.324814 
	C62.288811,210.324814 57.379059,210.324814 52.000000,210.324814 
	C52.000000,216.595657 52.000000,222.548218 52.000000,229.500504 
M68.000038,392.326050 
	C68.000038,376.624603 68.000038,360.923157 68.000038,345.374207 
	C62.181755,345.374207 57.274986,345.374207 52.022938,345.374207 
	C52.022938,363.181183 51.708218,380.625519 52.209171,398.046387 
	C52.365326,403.476868 54.726936,408.843964 56.165325,414.584900 
	C61.913387,412.230499 66.416702,410.385925 70.530830,408.700775 
	C69.637062,403.253143 68.818657,398.264923 68.000038,392.326050 
M390.837799,31.053848 
	C390.265228,31.531448 389.208313,31.996235 389.195282,32.488636 
	C389.069824,37.231472 389.120087,41.978966 389.120087,46.683769 
	C411.720612,46.683769 433.614960,46.683769 455.578064,46.683769 
	C455.578064,41.330723 455.578064,36.299957 455.578064,31.012304 
	C434.032135,31.012304 412.906982,31.012304 390.837799,31.053848 
M252.000000,448.526611 
	C252.000000,451.269531 252.000000,454.012451 252.000000,456.666687 
	C274.758392,456.666687 296.651459,456.666687 318.561462,456.666687 
	C318.561462,451.292023 318.561462,446.262390 318.561462,441.340210 
	C296.228302,441.340210 274.335358,441.340210 252.000000,441.340210 
	C252.000000,443.633270 252.000000,445.599579 252.000000,448.526611 
M184.999420,35.657658 
	C184.887375,34.223633 184.775314,32.789608 184.670517,31.448360 
	C162.249603,31.448360 140.239639,31.448360 118.375893,31.448360 
	C118.375893,36.814537 118.375893,41.724953 118.375893,46.721924 
	C140.645508,46.721924 162.538208,46.721924 184.999893,46.721924 
	C184.999893,43.181519 184.999893,39.898483 184.999420,35.657658 
M576.077698,418.682526 
	C573.529175,420.810760 570.747192,422.716888 568.473816,425.106842 
	C560.081238,433.930054 550.100525,439.263092 537.803833,440.061798 
	C532.939514,440.377747 528.098083,441.046234 523.345825,441.543762 
	C523.345825,446.758942 523.345825,451.666595 523.345825,456.727142 
	C549.582214,458.921021 570.045532,448.660431 587.105042,429.040985 
	C583.605713,425.728851 580.107300,422.417633 576.077698,418.682526 
M68.000000,111.500153 
	C68.119919,100.372932 66.893173,89.109612 71.580528,78.469101 
	C66.566536,76.440132 61.778336,74.502533 56.577694,72.398033 
	C48.396976,95.326958 53.574028,118.194550 51.809391,140.656067 
	C57.758064,140.656067 62.663376,140.656067 68.000000,140.656067 
	C68.000000,131.045670 68.000000,121.772865 68.000000,111.500153 
M440.489685,441.000000 
	C423.098724,441.000000 405.707764,441.000000 388.325623,441.000000 
	C388.325623,446.711700 388.325623,451.621307 388.325623,456.601227 
	C410.327759,456.601227 432.001892,456.601227 453.673889,456.601227 
	C453.673889,451.287262 453.673889,446.377686 453.673889,441.000000 
	C449.401520,441.000000 445.443359,441.000000 440.489685,441.000000 
M283.500000,31.000000 
	C273.762146,31.000000 264.024292,31.000000 254.335449,31.000000 
	C254.335449,36.732182 254.335449,41.641571 254.335449,46.592133 
	C276.347229,46.592133 298.021088,46.592133 319.664856,46.592133 
	C319.664856,41.268471 319.664856,36.359077 319.664856,31.000000 
	C307.723602,31.000000 296.111786,31.000000 283.500000,31.000000 
z"/>
<path fill="#FFFFFF" opacity="1.000000" stroke="none" 
	d="
M801.000000,234.531342 
	C798.779541,228.915756 797.231140,222.464111 794.159424,216.845215 
	C790.729492,210.571091 786.616577,204.356918 781.599060,199.311890 
	C721.610596,138.993851 661.438538,78.858040 601.203552,18.785753 
	C591.629150,9.237259 579.763000,3.800229 566.200928,1.338641 
	C644.260193,1.000000 722.520447,1.000000 801.000000,1.000000 
	C801.000000,78.687424 801.000000,156.375046 801.000000,234.531342 
z"/>
<path fill="#FFFFFF" opacity="1.000000" stroke="none" 
	d="
M574.468628,487.000000 
	C583.723999,484.145477 593.730713,481.499207 601.522766,474.781311 
	C612.176636,465.596161 622.174377,455.649139 632.432434,446.006378 
	C634.450806,444.109100 636.380188,442.116882 638.339722,440.157501 
	C684.962036,393.537872 731.594055,346.927979 778.194885,300.286804 
	C788.000000,290.473145 795.680664,279.328094 799.132385,265.653931 
	C799.572327,263.911316 799.930786,262.148132 800.663452,260.197235 
	C801.000000,335.593689 801.000000,411.187408 801.000000,487.000000 
	C725.645935,487.000000 650.291626,487.000000 574.468628,487.000000 
z"/>
<path fill="#FFFFFF" opacity="1.000000" stroke="none" 
	d="
M57.531342,1.000000 
	C53.247002,2.545572 48.379608,3.809301 43.760307,5.684257 
	C20.613644,15.079391 6.875838,32.346027 1.334275,56.807724 
	C1.000000,38.405895 1.000000,19.811790 1.000000,1.000000 
	C19.686998,1.000000 38.374840,1.000000 57.531342,1.000000 
z"/>
<path fill="#FFFFFF" opacity="1.000000" stroke="none" 
	d="
M1.000002,431.468658 
	C3.221303,437.085449 4.877810,443.454590 7.765870,449.205170 
	C17.938923,469.461243 34.338734,481.841675 56.807724,486.665710 
	C38.406548,487.000000 19.813091,487.000000 1.000000,487.000000 
	C1.000000,468.646362 1.000000,450.291840 1.000002,431.468658 
z"/>
<path fill="#FFFFFF" opacity="1.000000" stroke="none" 
	d="
M400.271179,280.197937 
	C388.561951,298.974670 371.725861,310.031128 350.498169,312.717529 
	C320.617065,316.499084 295.016663,303.057556 280.266846,276.660217 
	C273.535858,264.613983 270.711639,251.608994 272.129303,238.063904 
	C274.534149,215.086655 285.397308,196.757523 305.486115,184.982208 
	C331.435669,169.771545 357.472778,170.837265 381.958832,188.172211 
	C398.528778,199.902924 407.679871,216.568054 410.117615,237.034805 
	C411.975098,252.629837 407.848145,266.554535 400.271179,280.197937 
M321.091919,203.428162 
	C319.548767,204.362732 317.973419,205.248367 316.467346,206.239304 
	C296.880615,219.126572 290.164551,243.590393 300.942719,264.522186 
	C310.430389,282.947693 327.919342,291.148315 347.382416,288.786896 
	C359.295715,287.341492 369.343811,281.601227 376.869354,271.749237 
	C384.038605,262.363708 386.682831,251.920822 386.052734,240.284988 
	C385.421967,228.636688 380.748993,218.579941 372.336426,211.168427 
	C357.494537,198.092712 340.294617,195.352753 321.091919,203.428162 
z"/>
<path fill="#FFFFFF" opacity="1.000000" stroke="none" 
	d="
M137.681488,270.337646 
	C127.565681,244.632385 131.829330,221.590088 148.213730,200.120911 
	C155.495514,190.579269 165.030472,183.809326 175.554550,179.623032 
	C192.699768,172.802948 210.675690,172.576752 228.037643,180.070343 
	C240.860092,185.604645 251.474854,193.991425 259.296631,205.759796 
	C261.575897,209.189102 261.243652,211.211899 257.340912,212.976837 
	C251.834808,215.466904 246.518570,218.376862 241.163925,221.085678 
	C225.027557,198.454971 203.816788,195.110458 186.346695,201.543839 
	C164.855927,209.457809 156.158279,225.505692 156.359177,244.254623 
	C156.579620,264.830109 167.122589,280.963593 189.065903,287.326172 
	C207.481796,292.665955 227.298645,287.631012 241.311172,266.258209 
	C248.118271,269.991821 254.960281,273.744598 262.116211,277.669556 
	C251.223602,296.238708 235.658554,308.104736 214.506210,311.988525 
	C189.912445,316.504211 168.661606,309.277435 151.450684,291.571045 
	C145.771317,285.728180 142.335724,277.704315 137.681488,270.337646 
z"/>
<path fill="#FFFFFF" opacity="1.000000" stroke="none" 
	d="
M534.053772,265.149780 
	C539.385132,251.155869 544.695923,237.565765 549.924561,223.944077 
	C555.743286,208.785172 561.513306,193.607376 567.244324,178.415085 
	C568.598999,174.823807 571.620850,175.909409 573.981567,176.140335 
	C575.725037,176.310867 578.352051,177.370224 578.868225,178.700119 
	C589.076721,205.000076 598.999512,231.410721 609.055237,257.770294 
	C615.428650,274.477417 621.926758,291.137024 628.356262,307.822815 
	C628.640137,308.559540 628.796814,309.345306 629.012634,310.108124 
	C621.064880,312.322906 620.422729,311.902802 617.764404,304.547119 
	C614.809753,296.371552 611.793884,288.209686 608.447510,280.190857 
	C607.728516,278.468079 605.495300,276.202240 603.934875,276.182892 
	C582.622192,275.918121 561.305115,276.004608 539.671631,276.004608 
	C536.083679,285.331238 532.395508,294.570618 528.978455,303.909180 
	C526.165161,311.597748 526.307556,311.649841 516.978394,310.572144 
	C522.679993,295.485199 528.338501,280.512421 534.053772,265.149780 
M595.537842,246.060654 
	C588.232300,227.181168 580.926758,208.301697 573.131592,188.156921 
	C562.778687,215.350388 552.862915,241.395462 542.889954,267.590820 
	C563.356567,267.590820 583.054504,267.590820 603.296631,267.590820 
	C600.701416,260.293213 598.295654,253.528381 595.537842,246.060654 
z"/>
<path fill="#FFFFFF" opacity="1.000000" stroke="none" 
	d="
M445.000000,287.000000 
	C445.000000,295.121338 445.000000,302.742645 445.000000,310.677673 
	C441.617676,310.677673 438.699768,310.677673 435.388794,310.677673 
	C435.388794,266.014313 435.388794,221.348068 435.388794,176.000000 
	C442.526794,176.000000 449.632538,175.762527 456.716461,176.054810 
	C467.754913,176.510254 479.023834,176.108673 489.751190,178.271729 
	C506.042938,181.556747 518.290710,198.450974 519.229675,214.727386 
	C520.372498,234.538040 505.372559,252.393372 488.537079,256.148254 
	C486.635834,256.572327 484.674866,256.951263 482.739288,256.962769 
	C470.435242,257.035919 458.130585,256.999939 445.000000,256.999939 
	C445.000000,267.017365 445.000000,276.758698 445.000000,287.000000 
M500.980072,193.479050 
	C493.420227,187.240234 484.859985,184.394699 474.959442,184.913071 
	C466.818939,185.339310 458.638336,184.986099 450.475586,185.011368 
	C448.724518,185.016785 446.973907,185.164200 445.360413,185.239777 
	C445.360413,206.780151 445.360413,227.689209 445.360413,248.999954 
	C447.521637,248.999954 449.325409,249.001175 451.129211,248.999725 
	C461.457550,248.991394 471.822388,249.510468 482.102203,248.799698 
	C489.753967,248.270645 497.148163,245.059814 502.098480,239.132904 
	C514.202332,224.641312 514.116150,208.924026 500.980072,193.479050 
z"/>
<path fill="#FFFFFF" opacity="1.000000" stroke="none" 
	d="
M673.249939,343.250122 
	C661.834412,354.663330 650.526184,365.689514 639.589050,377.072235 
	C636.242737,380.554871 634.098511,380.387421 631.310669,376.866882 
	C629.208008,374.211578 626.806274,371.793060 624.674866,369.421783 
	C640.678894,353.469330 656.087219,338.110596 671.309082,322.937805 
	C674.691772,326.397705 678.344543,330.133850 682.442444,334.325256 
	C679.853027,336.837158 676.676453,339.918671 673.249939,343.250122 
z"/>
<path fill="#FFFFFF" opacity="1.000000" stroke="none" 
	d="
M681.891357,159.047638 
	C681.916504,159.471527 681.941650,159.895447 681.632324,160.782379 
	C677.545532,164.458160 673.793152,167.670898 670.040771,170.883636 
	C656.565552,157.293793 643.101379,143.692902 629.601562,130.127518 
	C627.843262,128.360703 625.901306,126.776596 623.676880,124.777573 
	C627.833923,120.671349 631.575317,116.975662 635.781372,113.491394 
	C651.461121,128.817734 666.676208,143.932693 681.891357,159.047638 
z"/>
<path fill="#FFFFFF" opacity="1.000000" stroke="none" 
	d="
M584.751221,65.737946 
	C581.548706,69.106956 578.590759,72.222664 575.060486,75.941254 
	C561.215576,60.201904 546.966431,46.160992 524.306763,47.454613 
	C524.306763,41.726341 524.306763,36.799747 524.306763,30.762684 
	C529.303528,31.372246 534.281311,31.688370 539.138977,32.626545 
	C553.843384,35.466473 565.818054,43.249634 576.225037,53.722309 
	C578.919434,56.433712 581.741455,59.031303 584.258240,61.897663 
	C584.958130,62.694687 584.774292,64.267662 584.751221,65.737946 
z"/>
<path fill="#FFFFFF" opacity="1.000000" stroke="none" 
	d="
M132.004944,441.000000 
	C149.441986,441.000000 166.379776,441.000000 183.657089,441.000000 
	C183.657089,446.343689 183.657089,451.253693 183.657089,456.584534 
	C161.703125,456.584534 139.695770,456.584534 117.342926,456.584534 
	C117.342926,451.657196 117.342926,446.747894 117.342926,441.000000 
	C122.010216,441.000000 126.757965,441.000000 132.004944,441.000000 
z"/>
<path fill="#FFFFFF" opacity="1.000000" stroke="none" 
	d="
M52.000000,229.000641 
	C52.000000,222.548218 52.000000,216.595657 52.000000,210.324814 
	C57.379059,210.324814 62.288811,210.324814 67.602509,210.324814 
	C67.602509,232.333649 67.602509,254.340622 67.602509,276.674927 
	C62.620136,276.674927 57.710552,276.674927 52.000000,276.674927 
	C52.000000,260.955139 52.000000,245.227814 52.000000,229.000641 
z"/>
<path fill="#FFFFFF" opacity="1.000000" stroke="none" 
	d="
M68.000145,392.801361 
	C68.818657,398.264923 69.637062,403.253143 70.530830,408.700775 
	C66.416702,410.385925 61.913387,412.230499 56.165325,414.584900 
	C54.726936,408.843964 52.365326,403.476868 52.209171,398.046387 
	C51.708218,380.625519 52.022938,363.181183 52.022938,345.374207 
	C57.274986,345.374207 62.181755,345.374207 68.000038,345.374207 
	C68.000038,360.923157 68.000038,376.624603 68.000145,392.801361 
z"/>
<path fill="#FFFFFF" opacity="1.000000" stroke="none" 
	d="
M391.309814,31.033077 
	C412.906982,31.012304 434.032135,31.012304 455.578064,31.012304 
	C455.578064,36.299957 455.578064,41.330723 455.578064,46.683769 
	C433.614960,46.683769 411.720612,46.683769 389.120087,46.683769 
	C389.120087,41.978966 389.069824,37.231472 389.195282,32.488636 
	C389.208313,31.996235 390.265228,31.531448 391.309814,31.033077 
z"/>
<path fill="#FFFFFF" opacity="1.000000" stroke="none" 
	d="
M252.000000,448.046234 
	C252.000000,445.599579 252.000000,443.633270 252.000000,441.340210 
	C274.335358,441.340210 296.228302,441.340210 318.561462,441.340210 
	C318.561462,446.262390 318.561462,451.292023 318.561462,456.666687 
	C296.651459,456.666687 274.758392,456.666687 252.000000,456.666687 
	C252.000000,454.012451 252.000000,451.269531 252.000000,448.046234 
z"/>
<path fill="#FFFFFF" opacity="1.000000" stroke="none" 
	d="
M184.999664,36.136551 
	C184.999893,39.898483 184.999893,43.181519 184.999893,46.721924 
	C162.538208,46.721924 140.645508,46.721924 118.375893,46.721924 
	C118.375893,41.724953 118.375893,36.814537 118.375893,31.448360 
	C140.239639,31.448360 162.249603,31.448360 184.670517,31.448360 
	C184.775314,32.789608 184.887375,34.223633 184.999664,36.136551 
z"/>
<path fill="#FFFFFF" opacity="1.000000" stroke="none" 
	d="
M576.343323,418.894470 
	C580.107300,422.417633 583.605713,425.728851 587.105042,429.040985 
	C570.045532,448.660431 549.582214,458.921021 523.345825,456.727142 
	C523.345825,451.666595 523.345825,446.758942 523.345825,441.543762 
	C528.098083,441.046234 532.939514,440.377747 537.803833,440.061798 
	C550.100525,439.263092 560.081238,433.930054 568.473816,425.106842 
	C570.747192,422.716888 573.529175,420.810760 576.343323,418.894470 
z"/>
<path fill="#FFFFFF" opacity="1.000000" stroke="none" 
	d="
M68.000000,112.000107 
	C68.000000,121.772865 68.000000,131.045670 68.000000,140.656067 
	C62.663376,140.656067 57.758064,140.656067 51.809391,140.656067 
	C53.574028,118.194550 48.396976,95.326958 56.577694,72.398033 
	C61.778336,74.502533 66.566536,76.440132 71.580528,78.469101 
	C66.893173,89.109612 68.119919,100.372932 68.000000,112.000107 
z"/>
<path fill="#FFFFFF" opacity="1.000000" stroke="none" 
	d="
M730.040771,281.883667 
	C726.249023,279.085114 722.457275,276.286530 718.654175,273.479614 
	C728.972839,255.466766 727.948914,236.202194 718.000916,219.832413 
	C722.085327,216.997055 726.194580,214.144424 730.783386,211.506500 
	C745.333923,232.359528 745.439697,258.775574 732.800659,280.315033 
	C732.336792,281.105530 730.980957,281.372650 730.040771,281.883667 
z"/>
<path fill="#FFFFFF" opacity="1.000000" stroke="none" 
	d="
M440.987427,441.000000 
	C445.443359,441.000000 449.401520,441.000000 453.673889,441.000000 
	C453.673889,446.377686 453.673889,451.287262 453.673889,456.601227 
	C432.001892,456.601227 410.327759,456.601227 388.325623,456.601227 
	C388.325623,451.621307 388.325623,446.711700 388.325623,441.000000 
	C405.707764,441.000000 423.098724,441.000000 440.987427,441.000000 
z"/>
<path fill="#FFFFFF" opacity="1.000000" stroke="none" 
	d="
M284.000000,31.000000 
	C296.111786,31.000000 307.723602,31.000000 319.664856,31.000000 
	C319.664856,36.359077 319.664856,41.268471 319.664856,46.592133 
	C298.021088,46.592133 276.347229,46.592133 254.335449,46.592133 
	C254.335449,41.641571 254.335449,36.732182 254.335449,31.000000 
	C264.024292,31.000000 273.762146,31.000000 284.000000,31.000000 
z"/>
<path fill="#55ABDF" opacity="1.000000" stroke="none" 
	d="
M730.141357,282.188141 
	C730.980957,281.372650 732.336792,281.105530 732.800659,280.315033 
	C745.439697,258.775574 745.333923,232.359528 731.108276,211.415619 
	C732.597412,212.035690 735.073242,212.551361 735.761414,213.947891 
	C747.945374,238.675629 748.572449,258.820129 734.752502,281.228180 
	C733.809631,282.756989 732.590698,285.135925 730.141357,282.188141 
z"/>
<path fill="#55ABDF" opacity="1.000000" stroke="none" 
	d="
M682.060791,158.808899 
	C666.676208,143.932693 651.461121,128.817734 636.099854,113.406418 
	C637.213562,113.486588 638.851685,113.480591 639.677063,114.296661 
	C653.527832,127.991425 667.290466,141.775543 681.009949,155.602081 
	C681.706421,156.304001 681.836487,157.567917 682.060791,158.808899 
z"/>
<path fill="#55ABDF" opacity="1.000000" stroke="none" 
	d="
M670.144287,171.189545 
	C673.793152,167.670898 677.545532,164.458160 681.594299,161.099167 
	C682.062927,161.852631 682.701050,163.193115 682.333252,163.581894 
	C679.537476,166.537079 676.632019,169.408844 673.532227,172.037064 
	C672.984375,172.501587 671.369751,171.708038 670.144287,171.189545 
z"/>
<path fill="#55ABDF" opacity="1.000000" stroke="none" 
	d="
M321.430664,203.248779 
	C340.294617,195.352753 357.494537,198.092712 372.336426,211.168427 
	C380.748993,218.579941 385.421967,228.636688 386.052734,240.284988 
	C386.682831,251.920822 384.038605,262.363708 376.869354,271.749237 
	C369.343811,281.601227 359.295715,287.341492 347.382416,288.786896 
	C327.919342,291.148315 310.430389,282.947693 300.942719,264.522186 
	C290.164551,243.590393 296.880615,219.126572 316.467346,206.239304 
	C317.973419,205.248367 319.548767,204.362732 321.430664,203.248779 
z"/>
<path fill="#55ABDF" opacity="1.000000" stroke="none" 
	d="
M595.713867,246.412109 
	C598.295654,253.528381 600.701416,260.293213 603.296631,267.590820 
	C583.054504,267.590820 563.356567,267.590820 542.889954,267.590820 
	C552.862915,241.395462 562.778687,215.350388 573.131592,188.156921 
	C580.926758,208.301697 588.232300,227.181168 595.713867,246.412109 
z"/>
<path fill="#55ABDF" opacity="1.000000" stroke="none" 
	d="
M501.236694,193.737427 
	C514.116150,208.924026 514.202332,224.641312 502.098480,239.132904 
	C497.148163,245.059814 489.753967,248.270645 482.102203,248.799698 
	C471.822388,249.510468 461.457550,248.991394 451.129211,248.999725 
	C449.325409,249.001175 447.521637,248.999954 445.360413,248.999954 
	C445.360413,227.689209 445.360413,206.780151 445.360413,185.239777 
	C446.973907,185.164200 448.724518,185.016785 450.475586,185.011368 
	C458.638336,184.986099 466.818939,185.339310 474.959442,184.913071 
	C484.859985,184.394699 493.420227,187.240234 501.236694,193.737427 
z"/>
</svg>