<?xml version="1.0" encoding="UTF-8"?>
<!DOCTYPE svg PUBLIC "-//W3C//DTD SVG 1.1//EN" "http://www.w3.org/Graphics/SVG/1.1/DTD/svg11.dtd">
<svg xmlns="http://www.w3.org/2000/svg" version="1.1" width="800px" height="486px" style="shape-rendering:geometricPrecision; text-rendering:geometricPrecision; image-rendering:optimizeQuality; fill-rule:evenodd; clip-rule:evenodd" xmlns:xlink="http://www.w3.org/1999/xlink">
<g><path style="opacity:0.992" fill="#55abdf" d="M 56.5,-0.5 C 225.833,-0.5 395.167,-0.5 564.5,-0.5C 576.178,1.90153 586.845,6.73486 596.5,14C 659.333,76.8333 722.167,139.667 785,202.5C 792.03,211.889 796.864,222.223 799.5,233.5C 799.5,241.833 799.5,250.167 799.5,258.5C 796.276,271.947 790.109,283.947 781,294.5C 723.5,352 666,409.5 608.5,467C 597.947,476.109 585.947,482.276 572.5,485.5C 400.167,485.5 227.833,485.5 55.5,485.5C 25.8333,477.833 7.16667,459.167 -0.5,429.5C -0.5,304.833 -0.5,180.167 -0.5,55.5C 7.28116,25.3853 26.2812,6.71862 56.5,-0.5 Z M 116.5,29.5 C 138.833,29.5 161.167,29.5 183.5,29.5C 183.5,34.8333 183.5,40.1667 183.5,45.5C 161.167,45.5 138.833,45.5 116.5,45.5C 116.5,40.1667 116.5,34.8333 116.5,29.5 Z M 252.5,29.5 C 274.5,29.5 296.5,29.5 318.5,29.5C 318.5,34.8333 318.5,40.1667 318.5,45.5C 296.5,45.5 274.5,45.5 252.5,45.5C 252.5,40.1667 252.5,34.8333 252.5,29.5 Z M 387.5,29.5 C 409.833,29.5 432.167,29.5 454.5,29.5C 454.5,34.8333 454.5,40.1667 454.5,45.5C 432.167,45.5 409.833,45.5 387.5,45.5C 387.5,40.1667 387.5,34.8333 387.5,29.5 Z M 522.5,29.5 C 540.881,29.6794 556.881,35.846 570.5,48C 575.349,52.6814 580.015,57.5148 584.5,62.5C 581.167,66.5 577.5,70.1667 573.5,73.5C 566.65,66.8163 559.65,60.3163 552.5,54C 543.293,48.365 533.293,45.5317 522.5,45.5C 522.5,40.1667 522.5,34.8333 522.5,29.5 Z M 54.5,71.5 C 59.8931,73.0204 65.2264,74.8537 70.5,77C 68.6425,80.5904 67.4758,84.4237 67,88.5C 66.5001,105.497 66.3334,122.497 66.5,139.5C 61.1667,139.5 55.8333,139.5 50.5,139.5C 50.3334,121.83 50.5001,104.164 51,86.5C 52.0141,81.4449 53.1807,76.4449 54.5,71.5 Z M 633.5,111.5 C 649.132,126.632 664.632,141.965 680,157.5C 680.667,158.167 680.667,158.833 680,159.5C 676.833,162.667 673.667,165.833 670.5,169C 669.833,169.667 669.167,169.667 668.5,169C 653.167,153.667 637.833,138.333 622.5,123C 626.37,119.298 630.037,115.464 633.5,111.5 Z M 189.5,173.5 C 216.819,170.917 238.985,180.25 256,201.5C 257.555,203.443 258.722,205.61 259.5,208C 259.355,208.772 259.022,209.439 258.5,210C 252.239,213.047 246.073,216.213 240,219.5C 220.349,194.771 197.182,190.938 170.5,208C 155.579,222.519 151.412,239.686 158,259.5C 169.254,282.265 187.42,291.098 212.5,286C 224.561,282.551 233.727,275.384 240,264.5C 246.915,268.374 253.749,272.374 260.5,276.5C 239.71,308.377 211.044,318.544 174.5,307C 141.908,291.378 127.741,265.545 132,229.5C 139.54,198.792 158.707,180.125 189.5,173.5 Z M 329.5,173.5 C 364.292,170.969 389.125,185.302 404,216.5C 415.444,252.087 405.944,280.587 375.5,302C 341.734,318.978 311.9,313.811 286,286.5C 266.52,259.184 265.52,231.184 283,202.5C 294.853,186.832 310.353,177.165 329.5,173.5 Z M 433.5,174.5 C 449.17,174.333 464.837,174.5 480.5,175C 507.066,180.242 519.233,196.409 517,223.5C 512.607,239.56 502.44,250.06 486.5,255C 472.171,255.5 457.837,255.667 443.5,255.5C 443.5,273.5 443.5,291.5 443.5,309.5C 440.167,309.5 436.833,309.5 433.5,309.5C 433.5,264.5 433.5,219.5 433.5,174.5 Z M 566.5,174.5 C 570.106,174.211 573.606,174.544 577,175.5C 593.942,220.163 610.775,264.83 627.5,309.5C 624.428,309.817 621.428,309.484 618.5,308.5C 614.363,297.421 610.029,286.421 605.5,275.5C 582.843,274.5 560.176,274.167 537.5,274.5C 533.836,285.99 529.669,297.323 525,308.5C 521.875,309.787 518.709,309.787 515.5,308.5C 532.513,263.812 549.513,219.146 566.5,174.5 Z M 50.5,208.5 C 55.8333,208.5 61.1667,208.5 66.5,208.5C 66.5,230.833 66.5,253.167 66.5,275.5C 61.1667,275.5 55.8333,275.5 50.5,275.5C 50.5,253.167 50.5,230.833 50.5,208.5 Z M 728.5,209.5 C 736.657,219.97 740.657,231.97 740.5,245.5C 740.625,258.453 736.959,270.12 729.5,280.5C 725.167,277.667 720.833,274.833 716.5,272C 727.146,254.212 727.146,236.378 716.5,218.5C 720.568,215.479 724.568,212.479 728.5,209.5 Z M 669.5,320.5 C 673.631,324.13 677.631,327.963 681.5,332C 666.167,347.333 650.833,362.667 635.5,378C 634.833,378.667 634.167,378.667 633.5,378C 630.333,374.833 627.167,371.667 624,368.5C 623.333,367.833 623.333,367.167 624,366.5C 639.368,351.299 654.535,335.965 669.5,320.5 Z M 50.5,343.5 C 55.8333,343.5 61.1667,343.5 66.5,343.5C 66.3334,361.17 66.5001,378.836 67,396.5C 67.5213,399.919 68.3546,403.252 69.5,406.5C 65.2073,408.895 60.7073,410.895 56,412.5C 55.0546,412.095 54.3879,411.428 54,410.5C 52.6866,406.58 51.6866,402.58 51,398.5C 50.5001,380.17 50.3334,361.836 50.5,343.5 Z M 573.5,416.5 C 577.631,420.13 581.631,423.963 585.5,428C 568.802,447.847 547.468,457.013 521.5,455.5C 521.5,450.167 521.5,444.833 521.5,439.5C 543.245,441.485 560.578,433.819 573.5,416.5 Z M 115.5,439.5 C 137.833,439.5 160.167,439.5 182.5,439.5C 182.5,444.833 182.5,450.167 182.5,455.5C 160.167,455.5 137.833,455.5 115.5,455.5C 115.5,450.167 115.5,444.833 115.5,439.5 Z M 250.5,439.5 C 272.833,439.5 295.167,439.5 317.5,439.5C 317.5,444.833 317.5,450.167 317.5,455.5C 295.167,455.5 272.833,455.5 250.5,455.5C 250.5,450.167 250.5,444.833 250.5,439.5 Z M 386.5,439.5 C 408.5,439.5 430.5,439.5 452.5,439.5C 452.5,444.833 452.5,450.167 452.5,455.5C 430.5,455.5 408.5,455.5 386.5,455.5C 386.5,450.167 386.5,444.833 386.5,439.5 Z"/></g>
<g><path style="opacity:0.978" fill="#55abdf" d="M 443.5,183.5 C 456.837,183.333 470.171,183.5 483.5,184C 503.525,190.202 511.691,203.702 508,224.5C 503.941,236.958 495.441,244.458 482.5,247C 469.504,247.5 456.504,247.667 443.5,247.5C 443.5,226.167 443.5,204.833 443.5,183.5 Z"/></g>
<g><path style="opacity:0.955" fill="#55abdf" d="M 571.5,187.5 C 582.267,213.458 592.267,239.791 601.5,266.5C 581.489,266.833 561.489,266.5 541.5,265.5C 551.516,239.474 561.516,213.474 571.5,187.5 Z"/></g>
<g><path style="opacity:0.979" fill="#55abdf" d="M 332.5,197.5 C 368.67,197.501 385.836,215.501 384,251.5C 376.497,277.851 358.997,289.684 331.5,287C 302.937,278.755 291.103,259.922 296,230.5C 302.069,212.591 314.235,201.591 332.5,197.5 Z"/></g>
</svg>
